<?xml version="1.0" standalone="no"?>
<!DOCTYPE svg PUBLIC "-//W3C//DTD SVG 20010904//EN"
 "http://www.w3.org/TR/2001/REC-SVG-20010904/DTD/svg10.dtd">
<svg version="1.0" xmlns="http://www.w3.org/2000/svg"
 width="1024.000000pt" height="1024.000000pt" viewBox="0 0 1024.000000 1024.000000"
 preserveAspectRatio="xMidYMid meet">
<metadata>
Created by potrace 1.14, written by Peter Selinger 2001-2017
</metadata>
<g transform="translate(0.000000,1024.000000) scale(0.100000,-0.100000)"
fill="#000000" stroke="none">
<path d="M4755 8160 c-78 -68 -115 -104 -115 -110 0 -4 -16 -25 -35 -46 -19
-21 -35 -41 -35 -45 0 -4 -15 -24 -32 -45 -18 -20 -54 -63 -80 -93 -26 -31
-63 -72 -82 -91 -39 -41 -81 -124 -70 -141 5 -8 3 -9 -6 -4 -10 6 -12 1 -8
-18 3 -16 1 -24 -5 -20 -6 3 -8 -6 -5 -26 2 -17 0 -31 -4 -31 -5 0 -9 -12 -7
-27 1 -16 -2 -36 -6 -46 -4 -9 -5 -33 -3 -51 2 -19 0 -32 -5 -29 -5 3 -7 -38
-6 -91 l3 -96 -74 -76 c-86 -87 -125 -112 -230 -149 -41 -15 -82 -29 -90 -32
-8 -3 -33 -7 -55 -8 -22 -2 -62 -6 -90 -9 -27 -4 -66 -9 -85 -11 -73 -8 -126
-15 -150 -19 -14 -2 -47 -7 -75 -10 -47 -6 -60 -8 -125 -21 -24 -5 -64 -11
-125 -20 -16 -2 -43 -7 -60 -10 -16 -3 -37 -6 -45 -6 -8 0 -40 -5 -70 -10 -30
-6 -68 -12 -85 -14 -16 -3 -43 -8 -60 -11 -16 -4 -37 -9 -45 -10 -31 -5 -86
-15 -105 -19 -11 -2 -36 -7 -55 -10 -19 -3 -44 -8 -55 -10 -11 -2 -36 -7 -55
-10 -19 -3 -44 -8 -55 -9 -11 -2 -38 -7 -60 -10 -22 -4 -47 -10 -55 -13 -8 -4
-17 -7 -20 -8 -3 0 -30 -7 -60 -14 -30 -8 -59 -16 -65 -20 -5 -3 -19 -7 -30
-8 -11 -2 -27 -6 -35 -10 -16 -6 -28 -10 -57 -17 -10 -3 -19 -5 -20 -6 -4 -3
-12 -5 -56 -14 -20 -5 -40 -12 -43 -17 -3 -5 -9 -7 -14 -4 -5 3 -21 0 -37 -6
-15 -7 -33 -13 -40 -15 -15 -3 -107 -66 -111 -76 -2 -4 -9 -8 -16 -8 -7 0 -23
-10 -36 -22 -14 -13 -25 -21 -25 -18 0 7 -65 -34 -65 -42 0 -4 -6 -8 -13 -8
-7 0 -22 -8 -33 -17 -10 -10 -31 -24 -46 -32 -16 -8 -28 -18 -28 -23 0 -4 -6
-8 -13 -8 -7 0 -23 -9 -35 -20 -12 -11 -24 -20 -28 -20 -11 0 -134 -84 -134
-92 0 -4 -5 -8 -10 -8 -15 0 -150 -91 -150 -101 0 -5 -5 -9 -11 -9 -12 0 -103
-60 -107 -72 -2 -4 -10 -8 -18 -8 -15 0 -155 -128 -151 -139 1 -4 -15 -22 -36
-40 -21 -19 -36 -36 -34 -38 4 -3 -11 -21 -74 -88 -10 -12 -19 -23 -19 -27 0
-3 -18 -25 -39 -49 -22 -23 -39 -46 -38 -50 1 -4 -5 -14 -14 -21 -28 -23 -138
-175 -132 -182 4 -3 1 -6 -5 -6 -11 0 -58 -70 -54 -82 1 -5 -2 -8 -7 -8 -12 0
-52 -81 -45 -92 3 -4 1 -8 -4 -8 -12 0 -35 -87 -27 -101 4 -5 1 -9 -4 -9 -6 0
-11 -8 -11 -18 0 -9 -16 -71 -35 -137 -20 -66 -34 -128 -31 -138 2 -9 1 -15
-3 -12 -11 6 -34 -102 -25 -116 4 -8 3 -9 -4 -5 -13 8 -28 -57 -16 -75 4 -7 3
-10 -3 -6 -6 4 -13 -5 -17 -21 -3 -15 -25 -103 -49 -197 -41 -157 -57 -234
-72 -340 -29 -206 -39 -328 -39 -475 1 -88 5 -113 24 -153 19 -41 25 -46 39
-35 14 11 14 11 3 -3 -10 -13 -10 -22 -1 -43 7 -14 17 -26 22 -26 6 0 7 -3 4
-6 -3 -4 23 -63 59 -133 93 -179 124 -253 150 -358 21 -85 61 -169 88 -185 6
-3 22 -16 36 -28 14 -12 54 -43 90 -68 60 -42 201 -153 226 -177 5 -5 27 -41
47 -79 21 -37 40 -73 43 -78 3 -5 13 -3 22 4 15 12 16 11 3 -4 -11 -15 -11
-21 0 -35 20 -26 22 -28 105 -143 116 -163 127 -172 222 -205 45 -16 79 -32
75 -36 -12 -12 -85 -18 -438 -34 -44 -2 -138 -6 -210 -10 -71 -4 -209 -7 -307
-8 l-176 -2 -34 -27 c-18 -16 -48 -39 -66 -52 -18 -13 -29 -26 -24 -29 4 -3
924 -6 2043 -5 1498 0 2038 3 2048 12 11 8 13 8 8 -1 -12 -20 72 -26 241 -18
86 4 218 8 292 8 l136 1 -1 1823 c0 1003 3 1823 8 1823 4 0 7 16 7 35 0 19 -3
35 -7 35 -5 0 -8 495 -8 1100 0 605 3 1100 8 1100 4 0 7 -7 7 -15 0 -8 8 -19
18 -24 25 -13 104 -12 95 2 -3 6 -1 7 5 3 6 -4 23 1 37 10 21 14 23 19 13 33
-12 14 -11 15 5 2 16 -12 21 -11 48 15 16 15 27 34 24 42 -2 7 -1 10 5 7 14
-9 61 80 64 123 l3 40 -53 -51 c-29 -28 -51 -54 -48 -59 3 -5 2 -7 -3 -6 -4 1
-19 -4 -32 -11 -13 -7 -49 -15 -80 -16 -30 -1 -57 -8 -59 -14 -2 -6 -8 -9 -12
-6 -10 6 -42 -49 -35 -59 3 -3 2 -3 -2 0 -10 7 -10 204 -1 204 4 0 10 -9 13
-20 6 -19 33 -26 74 -20 21 3 81 53 81 68 0 6 4 12 10 12 16 0 62 109 57 136
-2 13 0 24 4 24 5 0 9 5 9 10 0 22 -21 8 -50 -35 -39 -56 -63 -72 -119 -78
-45 -5 -71 -26 -71 -56 0 -8 -3 -11 -7 -7 -9 8 -11 166 -3 166 3 0 13 -7 23
-14 21 -16 54 -10 81 13 27 23 69 99 61 111 -3 5 -2 10 3 10 13 0 24 62 13 73
-6 6 -6 19 0 35 12 31 4 41 -11 13 -6 -12 -8 -21 -5 -21 4 0 -1 -7 -9 -16 -9
-8 -14 -20 -11 -25 4 -5 1 -9 -5 -9 -6 0 -8 -4 -5 -10 3 -5 1 -10 -4 -10 -6 0
-11 -7 -11 -16 0 -8 -4 -12 -10 -9 -5 3 -10 2 -10 -3 0 -6 -8 -8 -18 -5 -10 2
-28 -5 -41 -16 -13 -12 -26 -21 -28 -21 -9 0 -20 45 -12 50 13 9 15 166 1 182
-6 8 -9 18 -5 21 10 10 -10 7 -22 -3z m-1268 -3885 c0 -8 -4 -12 -9 -9 -5 3
-6 10 -3 15 9 13 12 11 12 -6z m-37 -39 c-7 -7 -13 -7 -20 0 -6 6 -3 10 10 10
13 0 16 -4 10 -10z m-369 -49 c-10 -9 -11 -8 -5 6 3 10 9 15 12 12 3 -3 0 -11
-7 -18z m282 -2 c-3 -9 -8 -14 -10 -11 -3 3 -2 9 2 15 9 16 15 13 8 -4z m63
-7 c3 -4 -1 -5 -10 -4 -8 1 -18 5 -22 8 -3 4 1 5 10 4 8 -1 18 -5 22 -8z m44
2 c0 -5 -5 -10 -11 -10 -5 0 -7 5 -4 10 3 6 8 10 11 10 2 0 4 -4 4 -10z m-104
-42 c3 -4 -1 -5 -10 -4 -8 1 -18 5 -22 8 -3 4 1 5 10 4 8 -1 18 -5 22 -8z
m179 2 c3 -5 1 -10 -4 -10 -6 0 -11 5 -11 10 0 6 2 10 4 10 3 0 8 -4 11 -10z
m-380 -20 c3 -5 1 -10 -4 -10 -6 0 -11 5 -11 10 0 6 2 10 4 10 3 0 8 -4 11
-10z m239 2 c3 -5 -1 -9 -9 -9 -8 0 -12 4 -9 9 3 4 7 8 9 8 2 0 6 -4 9 -8z
m-158 -64 c3 -4 -1 -5 -10 -4 -8 1 -18 5 -22 8 -3 4 1 5 10 4 8 -1 18 -5 22
-8z m44 -2 c0 -2 -8 -10 -17 -17 -16 -13 -17 -12 -4 4 13 16 21 21 21 13z
m111 -23 c13 -16 12 -17 -3 -4 -17 13 -22 21 -14 21 2 0 10 -8 17 -17z m129 6
c0 -4 -9 -7 -19 -6 -11 0 -18 4 -16 7 6 9 35 8 35 -1z m35 -7 c-3 -3 -11 0
-18 7 -9 10 -8 11 6 5 10 -3 15 -9 12 -12z m-435 -6 c0 -3 -4 -8 -10 -11 -5
-3 -10 -1 -10 4 0 6 5 11 10 11 6 0 10 -2 10 -4z m120 -11 c0 -2 -9 -3 -19 -2
-11 0 -18 5 -15 9 4 6 34 0 34 -7z m118 -20 c-3 -3 -9 2 -12 12 -6 14 -5 15 5
6 7 -7 10 -15 7 -18z m147 6 c-9 -8 -36 -10 -30 -2 2 4 11 8 20 8 8 0 13 -3
10 -6z m32 -6 c0 -8 -4 -12 -9 -9 -4 3 -8 9 -8 15 0 5 4 9 8 9 5 0 9 -7 9 -15z
m-357 -9 c0 -3 -4 -8 -10 -11 -5 -3 -10 -1 -10 4 0 6 5 11 10 11 6 0 10 -2 10
-4z m270 -2 c0 -8 -19 -13 -24 -6 -3 5 1 9 9 9 8 0 15 -2 15 -3z m26 -29 c1
-8 -1 -17 -5 -19 -4 -3 -7 6 -7 19 0 25 8 25 12 0z m-420 -11 c1 -9 0 -13 -4
-10 -3 4 -7 14 -8 22 -1 9 0 13 4 10 3 -4 7 -14 8 -22z m284 16 c0 -5 -5 -10
-11 -10 -5 0 -7 5 -4 10 3 6 8 10 11 10 2 0 4 -4 4 -10z m40 4 c0 -8 -19 -13
-24 -6 -3 5 1 9 9 9 8 0 15 -2 15 -3z m154 -2 c3 -5 -1 -9 -9 -9 -8 0 -12 4
-9 9 3 4 7 8 9 8 2 0 6 -4 9 -8z m-394 -22 c0 -5 -5 -10 -11 -10 -5 0 -7 5 -4
10 3 6 8 10 11 10 2 0 4 -4 4 -10z m40 6 c0 -3 -4 -8 -10 -11 -5 -3 -10 -1
-10 4 0 6 5 11 10 11 6 0 10 -2 10 -4z m-382 -31 c-3 -3 -9 2 -12 12 -6 14 -5
15 5 6 7 -7 10 -15 7 -18z m579 11 c0 -15 -21 -16 -34 -1 -4 4 -3 5 4 1 6 -3
14 -2 18 4 8 14 12 13 12 -4z m-381 -28 c3 -4 -1 -5 -10 -4 -8 1 -18 5 -22 8
-3 4 1 5 10 4 8 -1 18 -5 22 -8z m355 -5 c13 -16 12 -17 -3 -4 -10 7 -18 15
-18 17 0 8 8 3 21 -13z m-311 3 c0 -2 -8 -10 -17 -17 -16 -13 -17 -12 -4 4 13
16 21 21 21 13z m149 -20 c9 -11 9 -16 -1 -22 -7 -4 -10 -4 -6 1 4 4 3 14 -3
22 -6 7 -9 13 -6 13 2 0 10 -6 16 -14z m126 4 c3 -5 1 -10 -4 -10 -6 0 -11 5
-11 10 0 6 2 10 4 10 3 0 8 -4 11 -10z m120 -8 c-3 -3 -11 0 -18 7 -9 10 -8
11 6 5 10 -3 15 -9 12 -12z m55 14 c0 -2 -8 -10 -17 -17 -16 -13 -17 -12 -4 4
13 16 21 21 21 13z m-597 -41 c-7 -21 -12 -19 -10 4 0 11 5 18 9 15 4 -3 5
-11 1 -19z m107 10 c0 -2 -9 -3 -19 -2 -11 0 -18 5 -15 9 4 6 34 0 34 -7z
m155 -3 c-3 -3 -11 0 -18 7 -9 10 -8 11 6 5 10 -3 15 -9 12 -12z m125 6 c0 -4
-4 -8 -9 -8 -6 0 -12 4 -15 8 -3 5 1 9 9 9 8 0 15 -4 15 -9z m84 0 c-3 -4 -9
-8 -15 -8 -5 0 -9 4 -9 8 0 5 7 9 15 9 8 0 12 -4 9 -9z m216 2 c0 -5 -2 -10
-4 -10 -3 0 -8 5 -11 10 -3 6 -1 10 4 10 6 0 11 -4 11 -10z m-745 -9 c3 -5 2
-12 -3 -15 -5 -3 -9 1 -9 9 0 17 3 19 12 6z m606 -8 c13 -16 12 -17 -3 -4 -17
13 -22 21 -14 21 2 0 10 -8 17 -17z m-110 -10 c13 -16 12 -17 -3 -5 -9 8 -23
10 -29 6 -8 -4 -9 -3 -5 4 10 17 21 15 37 -5z m243 -15 c-3 -4 -11 -5 -19 -1
-21 7 -19 12 4 10 11 0 18 -5 15 -9z m-804 -14 c0 -8 -19 -13 -24 -6 -3 5 1 9
9 9 8 0 15 -2 15 -3z m510 -5 c0 -4 -9 -7 -19 -6 -11 0 -18 4 -16 7 6 9 35 8
35 -1z m34 -5 c3 -8 2 -12 -4 -9 -6 3 -10 10 -10 16 0 14 7 11 14 -7z m-459
-14 c3 -5 1 -10 -4 -10 -6 0 -11 5 -11 10 0 6 2 10 4 10 3 0 8 -4 11 -10z
m222 3 c-4 -3 -1 -13 6 -22 11 -14 10 -14 -5 -2 -16 12 -16 31 -1 31 4 0 3 -3
0 -7z m87 -5 c-3 -4 -9 -8 -15 -8 -5 0 -9 4 -9 8 0 5 7 9 15 9 8 0 12 -4 9 -9z
m356 -2 c0 -2 -8 -10 -17 -17 -16 -13 -17 -12 -4 4 13 16 21 21 21 13z m-396
-14 c3 -5 -1 -9 -9 -9 -8 0 -15 4 -15 9 0 4 4 8 9 8 6 0 12 -4 15 -8z m186 2
c0 -8 -19 -13 -24 -6 -3 5 1 9 9 9 8 0 15 -2 15 -3z m-279 -31 c13 -16 12 -17
-3 -4 -10 7 -18 15 -18 17 0 8 8 3 21 -13z m45 -8 c1 -8 -5 -20 -14 -27 -15
-11 -15 -11 -6 2 6 8 10 23 8 33 -1 11 0 16 4 13 3 -4 7 -13 8 -21z m57 0 c-3
-9 -8 -14 -10 -11 -3 3 -2 9 2 15 9 16 15 13 8 -4z m-382 -12 c13 -17 13 -17
-6 -3 -11 8 -22 16 -24 17 -2 2 0 3 6 3 6 0 17 -8 24 -17z m69 -13 c0 -5 -5
-10 -11 -10 -5 0 -7 5 -4 10 3 6 8 10 11 10 2 0 4 -4 4 -10z m220 6 c0 -3 -4
-8 -10 -11 -5 -3 -10 -1 -10 4 0 6 5 11 10 11 6 0 10 -2 10 -4z m376 -22 c1
-9 0 -13 -4 -10 -3 4 -7 14 -8 22 -1 9 0 13 4 10 3 -4 7 -14 8 -22z m-41 -4
c3 -5 1 -10 -4 -10 -6 0 -11 5 -11 10 0 6 2 10 4 10 3 0 8 -4 11 -10z m-595
-20 c0 -5 -5 -10 -11 -10 -5 0 -7 5 -4 10 3 6 8 10 11 10 2 0 4 -4 4 -10z
m190 -16 c0 -8 -19 -13 -24 -6 -3 5 1 9 9 9 8 0 15 -2 15 -3z m515 -4 c3 -6
-1 -7 -9 -4 -18 7 -21 14 -7 14 6 0 13 -4 16 -10z m-928 -15 c0 -8 -4 -12 -9
-9 -5 3 -6 10 -3 15 9 13 12 11 12 -6z m147 -3 c3 -5 -1 -9 -9 -9 -8 0 -12 4
-9 9 3 4 7 8 9 8 2 0 6 -4 9 -8z m36 4 c0 -3 -4 -8 -10 -11 -5 -3 -10 -1 -10
4 0 6 5 11 10 11 6 0 10 -2 10 -4z m40 0 c0 -3 -4 -8 -10 -11 -5 -3 -10 -1
-10 4 0 6 5 11 10 11 6 0 10 -2 10 -4z m192 -21 c3 3 11 -3 19 -12 12 -16 12
-17 -2 -6 -9 7 -18 11 -21 8 -3 -3 -13 5 -24 17 -19 23 -19 23 2 5 11 -9 23
-15 26 -12z m208 15 c0 -5 -2 -10 -4 -10 -3 0 -8 5 -11 10 -3 6 -1 10 4 10 6
0 11 -4 11 -10z m140 5 c0 -7 -30 -13 -34 -7 -3 4 4 9 15 9 10 1 19 0 19 -2z
m365 -25 c-3 -5 -12 -10 -18 -10 -7 0 -6 4 3 10 19 12 23 12 15 0z m-1071 -18
c2 -4 -5 -9 -17 -9 -17 -2 -19 0 -7 7 18 12 18 12 24 2z m226 4 c0 -2 -7 -7
-16 -10 -8 -3 -12 -2 -9 4 6 10 25 14 25 6z m340 0 c0 -3 -4 -8 -10 -11 -5 -3
-10 -1 -10 4 0 6 5 11 10 11 6 0 10 -2 10 -4z m40 -2 c0 -8 -19 -13 -24 -6 -3
5 1 9 9 9 8 0 15 -2 15 -3z m335 -13 c3 -5 2 -12 -3 -15 -5 -3 -9 1 -9 9 0 17
3 19 12 6z m-784 -24 c-10 -9 -11 -8 -5 6 3 10 9 15 12 12 3 -3 0 -11 -7 -18z
m73 15 c3 -5 -1 -9 -9 -9 -8 0 -12 4 -9 9 3 4 7 8 9 8 2 0 6 -4 9 -8z m76 -2
c0 -5 -2 -10 -4 -10 -3 0 -8 5 -11 10 -3 6 -1 10 4 10 6 0 11 -4 11 -10z m-67
-35 c-3 -9 -8 -14 -10 -11 -3 3 -2 9 2 15 9 16 15 13 8 -4z m45 -10 c-3 -3 -9
2 -12 12 -6 14 -5 15 5 6 7 -7 10 -15 7 -18z m-324 -16 c3 -3 -4 -5 -14 -6
-11 -1 -20 2 -20 7 0 8 25 8 34 -1z m486 1 c0 -5 -2 -10 -4 -10 -3 0 -8 5 -11
10 -3 6 -1 10 4 10 6 0 11 -4 11 -10z m-380 -4 c0 -2 -8 -10 -17 -17 -16 -13
-17 -12 -4 4 13 16 21 21 21 13z m180 -17 c0 -5 -4 -9 -8 -9 -5 0 -9 7 -9 15
0 8 4 12 9 9 4 -3 8 -9 8 -15z m280 1 c0 -5 -5 -10 -11 -10 -5 0 -7 5 -4 10 3
6 8 10 11 10 2 0 4 -4 4 -10z m-120 -16 c0 -8 -19 -13 -24 -6 -3 5 1 9 9 9 8
0 15 -2 15 -3z m55 -3 c-9 -8 -36 -10 -30 -2 2 4 11 8 20 8 8 0 13 -3 10 -6z
m-382 -16 c-3 -9 -8 -14 -10 -11 -3 3 -2 9 2 15 9 16 15 13 8 -4z m138 -18
c-10 -9 -11 -8 -5 6 3 10 9 15 12 12 3 -3 0 -11 -7 -18z m-376 4 c3 -5 2 -12
-3 -15 -5 -3 -9 1 -9 9 0 17 3 19 12 6z m485 -11 c0 -5 -5 -10 -11 -10 -5 0
-7 5 -4 10 3 6 8 10 11 10 2 0 4 -4 4 -10z m40 6 c0 -3 -4 -8 -10 -11 -5 -3
-10 -1 -10 4 0 6 5 11 10 11 6 0 10 -2 10 -4z m34 -4 c3 -5 -1 -9 -9 -9 -8 0
-12 4 -9 9 3 4 7 8 9 8 2 0 6 -4 9 -8z m-251 -16 c11 1 16 0 13 -4 -13 -12
-36 -10 -48 6 -11 15 -11 15 2 6 8 -6 23 -10 33 -8z m357 -2 c0 -8 -19 -13
-24 -6 -3 5 1 9 9 9 8 0 15 -2 15 -3z m-625 -24 c3 -5 1 -10 -4 -10 -6 0 -11
5 -11 10 0 6 2 10 4 10 3 0 8 -4 11 -10z m445 0 c0 -5 -5 -10 -11 -10 -5 0 -7
5 -4 10 3 6 8 10 11 10 2 0 4 -4 4 -10z m-304 -20 c0 -12 -4 -16 -9 -11 -5 5
-6 14 -3 20 10 15 12 14 12 -9z m77 5 c-3 -9 -8 -14 -10 -11 -3 3 -2 9 2 15 9
16 15 13 8 -4z m-338 -13 c-3 -3 -11 0 -18 7 -9 10 -8 11 6 5 10 -3 15 -9 12
-12z m485 -12 c0 -5 -2 -10 -4 -10 -3 0 -8 5 -11 10 -3 6 -1 10 4 10 6 0 11
-4 11 -10z m74 -2 c-3 -4 -11 -5 -19 -1 -21 7 -19 12 4 10 11 0 18 -5 15 -9z
m-417 -23 c0 -8 -4 -12 -9 -9 -5 3 -6 10 -3 15 9 13 12 11 12 -6z m37 7 c3 -5
-1 -9 -9 -9 -8 0 -12 4 -9 9 3 4 7 8 9 8 2 0 6 -4 9 -8z m50 0 c3 -5 -1 -9 -9
-9 -8 0 -12 4 -9 9 3 4 7 8 9 8 2 0 6 -4 9 -8z m187 -9 c13 -16 12 -17 -3 -4
-17 13 -22 21 -14 21 2 0 10 -8 17 -17z m-415 -29 c1 -9 0 -13 -4 -10 -3 4 -7
14 -8 22 -1 9 0 13 4 10 3 -4 7 -14 8 -22z m40 0 c1 -9 0 -13 -4 -10 -3 4 -7
14 -8 22 -1 9 0 13 4 10 3 -4 7 -14 8 -22z m44 22 c0 -3 -4 -8 -10 -11 -5 -3
-10 -1 -10 4 0 6 5 11 10 11 6 0 10 -2 10 -4z m-145 -15 c3 -5 2 -12 -3 -15
-5 -3 -9 1 -9 9 0 17 3 19 12 6z m265 -7 c0 -8 -19 -13 -24 -6 -3 5 1 9 9 9 8
0 15 -2 15 -3z m97 -9 c0 -8 -4 -12 -9 -9 -5 3 -6 10 -3 15 9 13 12 11 12 -6z
m74 -8 c-10 -9 -11 -8 -5 6 3 10 9 15 12 12 3 -3 0 -11 -7 -18z m86 8 c0 -8
-4 -12 -9 -9 -5 3 -6 10 -3 15 9 13 12 11 12 -6z m-260 -30 c0 -8 -4 -15 -9
-15 -10 0 -11 14 -1 23 9 10 10 9 10 -8z m-241 -21 c1 -9 0 -13 -4 -10 -3 4
-7 14 -8 22 -1 9 0 13 4 10 3 -4 7 -14 8 -22z m520 11 c-1 -8 -5 -17 -8 -21
-5 -4 -4 16 1 34 3 9 9 -1 7 -13z m-217 -8 c8 -10 7 -14 -2 -14 -8 0 -14 6
-14 14 0 7 1 13 2 13 2 0 8 -6 14 -13z m-246 -22 c-3 -9 -8 -14 -10 -11 -3 3
-2 9 2 15 9 16 15 13 8 -4z m142 3 c5 4 5 1 1 -6 -6 -10 -11 -10 -22 -1 -8 6
-14 14 -14 16 0 3 6 0 13 -6 8 -6 18 -7 22 -3z m181 -14 c1 -9 0 -13 -4 -10
-3 4 -7 14 -8 22 -1 9 0 13 4 10 3 -4 7 -14 8 -22z m80 0 c1 -9 0 -13 -4 -10
-3 4 -7 14 -8 22 -1 9 0 13 4 10 3 -4 7 -14 8 -22z m-106 12 c0 -2 -8 -10 -17
-17 -16 -13 -17 -12 -4 4 13 16 21 21 21 13z m-425 -46 c3 -6 -1 -7 -9 -4 -18
7 -21 14 -7 14 6 0 13 -4 16 -10z m299 2 c2 -4 -4 -8 -14 -8 -10 0 -16 4 -14
8 3 4 9 8 14 8 5 0 11 -4 14 -8z m251 -14 c5 4 5 1 1 -6 -6 -10 -11 -10 -22
-1 -8 6 -14 14 -14 16 0 3 6 0 13 -6 8 -6 18 -7 22 -3z m-495 -3 c0 -7 -30
-13 -34 -7 -3 4 4 9 15 9 10 1 19 0 19 -2z m219 -18 c8 -10 7 -14 -2 -14 -8 0
-14 6 -14 14 0 7 1 13 2 13 2 0 8 -6 14 -13z m-282 -16 c0 -11 -5 -18 -9 -15
-4 3 -5 11 -1 19 7 21 12 19 10 -4z m479 4 c-1 -8 -5 -17 -8 -21 -5 -4 -4 16
1 34 3 9 9 -1 7 -13z m-540 -40 c-1 -8 -5 -17 -8 -21 -5 -4 -4 16 1 34 3 9 9
-1 7 -13z m334 9 c0 -8 -19 -13 -24 -6 -3 5 1 9 9 9 8 0 15 -2 15 -3z m-210
-28 c0 -2 -8 -10 -17 -17 -16 -13 -17 -12 -4 4 13 16 21 21 21 13z m175 -5 c3
-5 2 -12 -3 -15 -5 -3 -9 1 -9 9 0 17 3 19 12 6z m45 -11 c0 -5 -2 -10 -4 -10
-3 0 -8 5 -11 10 -3 6 -1 10 4 10 6 0 11 -4 11 -10z m-145 -9 c3 -5 2 -12 -3
-15 -5 -3 -9 1 -9 9 0 17 3 19 12 6z m-221 -9 c2 -4 -5 -9 -17 -9 -17 -2 -19
0 -7 7 18 12 18 12 24 2z m520 -4 c-3 -4 -11 -5 -19 -1 -21 7 -19 12 4 10 11
0 18 -5 15 -9z m-201 -13 c-3 -9 -8 -14 -10 -11 -3 3 -2 9 2 15 9 16 15 13 8
-4z m-163 1 c0 -2 -8 -10 -17 -17 -16 -13 -17 -12 -4 4 13 16 21 21 21 13z
m134 -5 c-8 -8 -34 -10 -38 -2 -3 4 6 7 19 7 14 0 22 -2 19 -5z m-249 -10 c3
-5 2 -12 -3 -15 -5 -3 -9 1 -9 9 0 17 3 19 12 6z m45 -5 c0 -3 -4 -8 -10 -11
-5 -3 -10 -1 -10 4 0 6 5 11 10 11 6 0 10 -2 10 -4z m166 -28 c12 -14 13 -18
3 -10 -9 6 -18 10 -21 7 -2 -3 -5 2 -5 10 0 19 0 19 23 -7z m90 2 c0 -12 -4
-16 -9 -11 -5 5 -6 14 -3 20 10 15 12 14 12 -9z m84 6 c0 -2 -7 -7 -16 -10 -8
-3 -12 -2 -9 4 6 10 25 14 25 6z m61 -9 c-6 -8 -7 -18 -3 -22 4 -5 1 -5 -6 -1
-10 6 -10 11 -1 22 6 8 14 14 16 14 3 0 0 -6 -6 -13z m56 -2 c0 -8 -4 -12 -9
-9 -4 3 -8 9 -8 15 0 5 4 9 8 9 5 0 9 -7 9 -15z m-541 -20 c-1 -8 -5 -17 -8
-21 -5 -4 -4 16 1 34 3 9 9 -1 7 -13z m184 -11 c0 -8 -19 -13 -24 -6 -3 5 1 9
9 9 8 0 15 -2 15 -3z m-240 -18 c0 -3 -4 -8 -10 -11 -5 -3 -10 -1 -10 4 0 6 5
11 10 11 6 0 10 -2 10 -4z m315 -5 c3 -5 2 -12 -3 -15 -5 -3 -9 1 -9 9 0 17 3
19 12 6z m-62 -16 c-3 -9 -8 -14 -10 -11 -3 3 -2 9 2 15 9 16 15 13 8 -4z
m-142 -18 c-10 -9 -11 -8 -5 6 3 10 9 15 12 12 3 -3 0 -11 -7 -18z m345 -3 c1
-9 0 -13 -4 -10 -3 4 -7 14 -8 22 -1 9 0 13 4 10 3 -4 7 -14 8 -22z m-220 -19
c1 -8 -5 -20 -14 -27 -15 -11 -15 -11 -6 2 6 8 10 23 8 33 -1 11 0 16 4 13 3
-4 7 -13 8 -21z m-76 11 c0 -2 -8 -10 -17 -17 -16 -13 -17 -12 -4 4 13 16 21
21 21 13z m-40 -12 c0 -8 -19 -13 -24 -6 -3 5 1 9 9 9 8 0 15 -2 15 -3z m210
2 c0 -2 -8 -10 -17 -17 -16 -13 -17 -12 -4 4 13 16 21 21 21 13z m147 -21 c0
-8 -4 -12 -9 -9 -5 3 -6 10 -3 15 9 13 12 11 12 -6z m-552 -25 c-3 -5 -12 -10
-18 -10 -7 0 -6 4 3 10 19 12 23 12 15 0z m335 4 c0 -8 -19 -13 -24 -6 -3 5 1
9 9 9 8 0 15 -2 15 -3z m-284 -40 c1 -9 0 -13 -4 -10 -3 4 -7 14 -8 22 -1 9 0
13 4 10 3 -4 7 -14 8 -22z m41 4 c2 -17 0 -19 -7 -8 -5 8 -6 18 -4 22 8 12 10
10 11 -14z m100 15 c-4 -3 -1 -13 6 -22 11 -14 10 -14 -5 -2 -16 12 -16 31 -1
31 4 0 3 -3 0 -7z m80 0 c-4 -3 -2 -11 3 -18 7 -8 5 -12 -4 -12 -8 0 -12 7
-11 16 5 22 4 21 12 21 3 0 3 -3 0 -7z m-261 -28 c-1 -8 -5 -17 -8 -21 -5 -4
-4 16 1 34 3 9 9 -1 7 -13z m480 -11 c1 -9 0 -13 -4 -10 -3 4 -7 14 -8 22 -1
9 0 13 4 10 3 -4 7 -14 8 -22z m1382 -9 c-3 -3 -9 2 -12 12 -6 14 -5 15 5 6 7
-7 10 -15 7 -18z m-1618 -15 c0 -5 -4 -10 -10 -10 -5 0 -10 5 -10 10 0 6 5 10
10 10 6 0 10 -4 10 -10z m196 -25 c-1 -8 -5 -17 -8 -21 -5 -4 -4 16 1 34 3 9
9 -1 7 -13z m-436 -15 c0 -5 -2 -10 -4 -10 -3 0 -8 5 -11 10 -3 6 -1 10 4 10
6 0 11 -4 11 -10z m105 0 c3 -6 -1 -7 -9 -4 -18 7 -21 14 -7 14 6 0 13 -4 16
-10z m119 2 c3 -5 -1 -9 -9 -9 -8 0 -12 4 -9 9 3 4 7 8 9 8 2 0 6 -4 9 -8z
m40 -4 c-3 -4 -9 -8 -15 -8 -5 0 -9 4 -9 8 0 5 7 9 15 9 8 0 12 -4 9 -9z m271
2 c3 -5 1 -10 -4 -10 -6 0 -11 5 -11 10 0 6 2 10 4 10 3 0 8 -4 11 -10z m1203
-25 c-3 -3 -9 2 -12 12 -6 14 -5 15 5 6 7 -7 10 -15 7 -18z m-1442 -10 c-1 -8
-5 -17 -8 -21 -5 -4 -4 16 1 34 3 9 9 -1 7 -13z m-121 -13 c-3 -3 -11 0 -18 7
-9 10 -8 11 6 5 10 -3 15 -9 12 -12z m90 8 c3 -6 -1 -7 -9 -4 -18 7 -21 14 -7
14 6 0 13 -4 16 -10z m70 -8 c-3 -3 -11 0 -18 7 -9 10 -8 11 6 5 10 -3 15 -9
12 -12z m-195 -12 c0 -5 -2 -10 -4 -10 -3 0 -8 5 -11 10 -3 6 -1 10 4 10 6 0
11 -4 11 -10z m84 2 c3 -5 -1 -9 -9 -9 -8 0 -15 4 -15 9 0 4 4 8 9 8 6 0 12
-4 15 -8z m171 -1 c-9 -8 -36 -10 -30 -2 2 4 11 8 20 8 8 0 13 -3 10 -6z
m1576 -14 c-10 -9 -11 -8 -5 6 3 10 9 15 12 12 3 -3 0 -11 -7 -18z m-1956 -7
c3 -5 1 -10 -4 -10 -6 0 -11 5 -11 10 0 6 2 10 4 10 3 0 8 -4 11 -10z m335 4
c0 -8 -19 -13 -24 -6 -3 5 1 9 9 9 8 0 15 -2 15 -3z m-336 -42 c3 -5 -1 -9 -9
-9 -8 0 -12 4 -9 9 3 4 7 8 9 8 2 0 6 -4 9 -8z m150 0 c3 -5 -1 -9 -9 -9 -8 0
-12 4 -9 9 3 4 7 8 9 8 2 0 6 -4 9 -8z m246 -18 c0 -8 -19 -13 -24 -6 -3 5 1
9 9 9 8 0 15 -2 15 -3z m-430 -20 c0 -8 -19 -13 -24 -6 -3 5 1 9 9 9 8 0 15
-2 15 -3z m44 -2 c3 -5 -1 -9 -9 -9 -8 0 -15 4 -15 9 0 4 4 8 9 8 6 0 12 -4
15 -8z m332 -18 c1 -9 0 -13 -4 -10 -3 4 -7 14 -8 22 -1 9 0 13 4 10 3 -4 7
-14 8 -22z m-261 -12 c-3 -3 -11 0 -18 7 -9 10 -8 11 6 5 10 -3 15 -9 12 -12z
m-160 -12 c3 -5 1 -10 -4 -10 -6 0 -11 5 -11 10 0 6 2 10 4 10 3 0 8 -4 11
-10z m236 -7 c13 -16 12 -17 -3 -4 -10 7 -18 15 -18 17 0 8 8 3 21 -13z m1280
0 c13 -16 12 -17 -3 -4 -17 13 -22 21 -14 21 2 0 10 -8 17 -17z m-1171 -7 c0
-3 -4 -8 -10 -11 -5 -3 -10 -1 -10 4 0 6 5 11 10 11 6 0 10 -2 10 -4z m76 -11
c-1 -8 -5 -17 -8 -21 -5 -4 -4 16 1 34 3 9 9 -1 7 -13z m-261 -23 c-3 -3 -11
0 -18 7 -9 10 -8 11 6 5 10 -3 15 -9 12 -12z m65 9 c0 -6 -4 -12 -8 -15 -5 -3
-9 1 -9 9 0 8 4 15 9 15 4 0 8 -4 8 -9z m2074 1 c3 -5 -1 -9 -9 -9 -8 0 -12 4
-9 9 3 4 7 8 9 8 2 0 6 -4 9 -8z m-1954 -16 c0 -3 -4 -8 -10 -11 -5 -3 -10 -1
-10 4 0 6 5 11 10 11 6 0 10 -2 10 -4z m-164 -21 c-1 -8 -5 -17 -8 -21 -5 -4
-4 16 1 34 3 9 9 -1 7 -13z m44 -5 c0 -5 -5 -10 -11 -10 -5 0 -7 5 -4 10 3 6
8 10 11 10 2 0 4 -4 4 -10z m75 -20 c3 -5 1 -10 -4 -10 -6 0 -11 5 -11 10 0 6
2 10 4 10 3 0 8 -4 11 -10z m-217 -25 c-3 -3 -9 2 -12 12 -6 14 -5 15 5 6 7
-7 10 -15 7 -18z m122 9 c0 -8 -19 -13 -24 -6 -3 5 1 9 9 9 8 0 15 -2 15 -3z
m1215 -12 c-3 -3 -11 0 -18 7 -9 10 -8 11 6 5 10 -3 15 -9 12 -12z m-1435 -6
c0 -3 -4 -8 -10 -11 -5 -3 -10 -1 -10 4 0 6 5 11 10 11 6 0 10 -2 10 -4z m320
-6 c0 -5 -2 -10 -4 -10 -3 0 -8 5 -11 10 -3 6 -1 10 4 10 6 0 11 -4 11 -10z
m40 4 c0 -8 -19 -13 -24 -6 -3 5 1 9 9 9 8 0 15 -2 15 -3z m56 -6 c3 -4 -1 -5
-10 -4 -8 1 -18 5 -22 8 -3 4 1 5 10 4 8 -1 18 -5 22 -8z m2041 -43 c0 -8 -4
-12 -9 -9 -5 3 -6 10 -3 15 9 13 12 11 12 -6z m-2163 -13 c3 -5 -1 -9 -9 -9
-8 0 -12 4 -9 9 3 4 7 8 9 8 2 0 6 -4 9 -8z m-153 -19 c13 -16 12 -17 -3 -4
-10 7 -18 15 -18 17 0 8 8 3 21 -13z m2274 8 c3 -5 2 -12 -3 -15 -5 -3 -9 1
-9 9 0 17 3 19 12 6z m-2051 -9 c3 -5 -1 -9 -9 -9 -8 0 -12 4 -9 9 3 4 7 8 9
8 2 0 6 -4 9 -8z m687 -29 c13 -16 12 -17 -3 -4 -17 13 -22 21 -14 21 2 0 10
-8 17 -17z m204 7 c3 -5 1 -10 -4 -10 -6 0 -11 5 -11 10 0 6 2 10 4 10 3 0 8
-4 11 -10z m-1155 -16 c0 -8 -19 -13 -24 -6 -3 5 1 9 9 9 8 0 15 -2 15 -3z
m275 -4 c3 -5 1 -10 -4 -10 -6 0 -11 5 -11 10 0 6 2 10 4 10 3 0 8 -4 11 -10z
m-319 -46 c1 -9 -1 -13 -4 -9 -4 4 -7 10 -7 13 0 4 -4 14 -9 22 -7 12 -6 13 4
3 8 -7 15 -20 16 -29z m104 27 c0 -6 -4 -12 -8 -15 -5 -3 -9 1 -9 9 0 8 4 15
9 15 4 0 8 -4 8 -9z m65 -1 c-3 -5 -12 -10 -18 -10 -7 0 -6 4 3 10 19 12 23
12 15 0z m-208 -15 c0 -8 -4 -12 -9 -9 -5 3 -6 10 -3 15 9 13 12 11 12 -6z
m298 -5 c3 -5 1 -10 -4 -10 -6 0 -11 5 -11 10 0 6 2 10 4 10 3 0 8 -4 11 -10z
m-304 -27 c13 -16 12 -17 -3 -4 -10 7 -18 15 -18 17 0 8 8 3 21 -13z m146 2
c0 -8 -4 -12 -9 -9 -5 3 -6 10 -3 15 9 13 12 11 12 -6z m63 5 c0 -5 -2 -10 -4
-10 -3 0 -8 5 -11 10 -3 6 -1 10 4 10 6 0 11 -4 11 -10z m180 6 c0 -2 -7 -7
-16 -10 -8 -3 -12 -2 -9 4 6 10 25 14 25 6z m1920 -2 c0 -8 -19 -13 -24 -6 -3
5 1 9 9 9 8 0 15 -2 15 -3z m-2255 -24 c3 -6 -1 -7 -9 -4 -18 7 -21 14 -7 14
6 0 13 -4 16 -10z m259 2 c3 -5 -1 -9 -9 -9 -8 0 -12 4 -9 9 3 4 7 8 9 8 2 0
6 -4 9 -8z m-300 -20 c2 -4 -4 -8 -14 -8 -10 0 -16 4 -14 8 3 4 9 8 14 8 5 0
11 -4 14 -8z m126 2 c0 -8 -19 -13 -24 -6 -3 5 1 9 9 9 8 0 15 -2 15 -3z
m1143 -19 c-3 -9 -8 -14 -10 -11 -3 3 -2 9 2 15 9 16 15 13 8 -4z m120 0 c-3
-9 -8 -14 -10 -11 -3 3 -2 9 2 15 9 16 15 13 8 -4z m-1316 -30 c0 -8 -4 -12
-9 -9 -5 3 -6 10 -3 15 9 13 12 11 12 -6z m114 -2 c13 -16 12 -17 -3 -4 -10 7
-18 15 -18 17 0 8 8 3 21 -13z m2404 8 c3 -5 2 -12 -3 -15 -5 -3 -9 1 -9 9 0
17 3 19 12 6z m-2298 -26 c0 -8 -4 -12 -9 -9 -5 3 -6 10 -3 15 9 13 12 11 12
-6z m1261 -40 c-3 -3 -9 2 -12 12 -6 14 -5 15 5 6 7 -7 10 -15 7 -18z m-1523
-14 c3 -5 2 -12 -3 -15 -5 -3 -9 1 -9 9 0 17 3 19 12 6z m41 -27 c1 -9 -1 -13
-4 -9 -4 4 -7 10 -7 13 0 4 -4 14 -9 22 -7 12 -6 13 4 3 8 -7 15 -20 16 -29z
m1264 30 c0 -8 -19 -13 -24 -6 -3 5 1 9 9 9 8 0 15 -2 15 -3z m-1335 -24 c3
-6 -1 -7 -9 -4 -18 7 -21 14 -7 14 6 0 13 -4 16 -10z m119 2 c3 -5 -1 -9 -9
-9 -8 0 -15 4 -15 9 0 4 4 8 9 8 6 0 12 -4 15 -8z m1827 -15 c-10 -9 -11 -8
-5 6 3 10 9 15 12 12 3 -3 0 -11 -7 -18z m-401 -7 c-8 -5 -19 -10 -25 -10 -5
0 -3 5 5 10 8 5 20 10 25 10 6 0 3 -5 -5 -10z m801 -13 c-10 -9 -11 -8 -5 6 3
10 9 15 12 12 3 -3 0 -11 -7 -18z m-1833 -12 c-3 -3 -9 2 -12 12 -6 14 -5 15
5 6 7 -7 10 -15 7 -18z m-513 5 c-3 -5 -12 -10 -18 -10 -7 0 -6 4 3 10 19 12
23 12 15 0z m1832 -5 c0 -8 -4 -12 -9 -9 -5 3 -6 10 -3 15 9 13 12 11 12 -6z
m-1791 -17 c12 -14 13 -18 3 -10 -9 6 -18 10 -21 7 -2 -3 -5 2 -5 10 0 19 0
19 23 -7z m9 -39 c3 -3 -6 -5 -19 -5 -14 1 -28 4 -31 7 -3 3 6 5 19 5 14 -1
28 -4 31 -7z m420 -47 c-3 -3 -11 0 -18 7 -9 10 -8 11 6 5 10 -3 15 -9 12 -12z
m565 8 c0 -5 -2 -10 -4 -10 -3 0 -8 5 -11 10 -3 6 -1 10 4 10 6 0 11 -4 11
-10z m-49 -33 c-10 -9 -11 -8 -5 6 3 10 9 15 12 12 3 -3 0 -11 -7 -18z m1082
-22 c-3 -9 -8 -14 -10 -11 -3 3 -2 9 2 15 9 16 15 13 8 -4z m-82 -18 c-10 -9
-11 -8 -5 6 3 10 9 15 12 12 3 -3 0 -11 -7 -18z m64 -55 c-3 -3 -11 0 -18 7
-9 10 -8 11 6 5 10 -3 15 -9 12 -12z m-215 -12 c0 -5 -2 -10 -4 -10 -3 0 -8 5
-11 10 -3 6 -1 10 4 10 6 0 11 -4 11 -10z m-390 -14 c0 -2 -8 -10 -17 -17 -16
-13 -17 -12 -4 4 13 16 21 21 21 13z m-1095 -25 c3 -5 2 -12 -3 -15 -5 -3 -9
1 -9 9 0 17 3 19 12 6z m1770 -1 c-3 -5 -12 -10 -18 -10 -7 0 -6 4 3 10 19 12
23 12 15 0z m540 -20 c3 -6 -1 -7 -9 -4 -18 7 -21 14 -7 14 6 0 13 -4 16 -10z
m-2268 -15 c0 -8 -4 -12 -9 -9 -5 3 -6 10 -3 15 9 13 12 11 12 -6z m1041 -10
c-3 -3 -9 2 -12 12 -6 14 -5 15 5 6 7 -7 10 -15 7 -18z m440 0 c-3 -3 -9 2
-12 12 -6 14 -5 15 5 6 7 -7 10 -15 7 -18z m715 10 c-3 -9 -8 -14 -10 -11 -3
3 -2 9 2 15 9 16 15 13 8 -4z m-1480 -20 c-3 -9 -8 -14 -10 -11 -3 3 -2 9 2
15 9 16 15 13 8 -4z m-442 -18 c-10 -9 -11 -8 -5 6 3 10 9 15 12 12 3 -3 0
-11 -7 -18z m69 13 c0 -5 -4 -10 -10 -10 -5 0 -10 5 -10 10 0 6 5 10 10 10 6
0 10 -4 10 -10z m-463 -25 c0 -8 -4 -12 -9 -9 -5 3 -6 10 -3 15 9 13 12 11 12
-6z m2314 -8 c-10 -9 -11 -8 -5 6 3 10 9 15 12 12 3 -3 0 -11 -7 -18z m-1231
-1 c0 -2 -7 -7 -16 -10 -8 -3 -12 -2 -9 4 6 10 25 14 25 6z m744 -4 c3 -5 -1
-9 -9 -9 -8 0 -12 4 -9 9 3 4 7 8 9 8 2 0 6 -4 9 -8z m431 -10 c-3 -3 -11 0
-18 7 -9 10 -8 11 6 5 10 -3 15 -9 12 -12z m-525 -27 c0 -2 -6 -8 -13 -14 -10
-8 -14 -7 -14 2 0 8 6 14 14 14 7 0 13 -1 13 -2z"/>
<path d="M5162 7434 c3 -3 -31 -41 -76 -85 -80 -79 -83 -81 -136 -84 -79 -4
-104 -10 -131 -28 -13 -10 -20 -17 -15 -17 5 0 3 -7 -5 -16 -17 -21 -13 -82 8
-102 35 -36 140 -13 202 44 14 13 28 24 31 24 14 0 81 100 74 111 -4 7 -3 9 3
6 12 -8 52 71 51 99 0 11 3 27 7 37 5 11 3 17 -6 17 -7 0 -10 -2 -7 -6z"/>
<path d="M5141 7065 c-45 -46 -95 -86 -109 -90 -15 -4 -56 -8 -91 -9 -41 -1
-66 -6 -69 -14 -2 -7 -7 -10 -12 -7 -4 3 -13 -2 -20 -10 -7 -8 -9 -15 -4 -15
5 0 3 -4 -4 -9 -8 -5 -14 -25 -14 -47 0 -112 165 -93 283 33 68 73 127 172
114 193 -3 5 -1 19 5 31 22 40 4 27 -79 -56z m-160 -238 c-10 -9 -11 -8 -5 6
3 10 9 15 12 12 3 -3 0 -11 -7 -18z m-91 -1 c0 -2 -7 -7 -16 -10 -8 -3 -12 -2
-9 4 6 10 25 14 25 6z"/>
<path d="M5255 6878 c-14 -18 -41 -49 -58 -68 -18 -19 -39 -44 -47 -55 -29
-41 -90 -69 -154 -71 -34 -1 -73 -4 -88 -7 -40 -6 -81 -36 -74 -53 3 -9 1 -12
-4 -9 -9 6 -11 -4 -13 -47 -1 -31 16 -66 38 -78 29 -16 110 -8 158 15 40 19
138 104 168 146 18 25 19 32 7 47 -11 15 -11 16 3 4 14 -10 19 -9 31 10 32 51
59 123 55 145 -2 13 -1 23 3 23 4 0 7 7 7 15 0 20 -1 20 -32 -17z m-165 -292
c0 -2 -7 -7 -16 -10 -8 -3 -12 -2 -9 4 6 10 25 14 25 6z m-165 -76 c3 -5 1
-10 -4 -10 -6 0 -11 5 -11 10 0 6 2 10 4 10 3 0 8 -4 11 -10z"/>
<path d="M5354 6625 c-8 -13 -34 -44 -57 -68 -23 -24 -61 -64 -84 -89 -56 -60
-97 -78 -191 -83 -90 -4 -109 -8 -150 -29 -31 -16 -46 -41 -35 -58 3 -7 1 -8
-5 -4 -7 4 -12 0 -13 -11 -1 -10 -2 -25 -3 -33 -3 -33 18 -71 47 -87 36 -18
129 -12 181 12 50 24 157 115 150 127 -4 6 -2 8 4 4 14 -9 66 60 56 75 -4 8
-3 9 4 5 22 -14 108 146 113 211 2 21 8 41 14 45 6 5 6 8 -2 8 -7 0 -20 -11
-29 -25z m-13 -78 c-10 -9 -11 -8 -5 6 3 10 9 15 12 12 3 -3 0 -11 -7 -18z
m-391 -367 c0 -5 -5 -10 -11 -10 -5 0 -7 5 -4 10 3 6 8 10 11 10 2 0 4 -4 4
-10z m40 0 c0 -5 -5 -10 -11 -10 -5 0 -7 5 -4 10 3 6 8 10 11 10 2 0 4 -4 4
-10z"/>
<path d="M8195 5068 c-68 -36 -91 -39 -157 -17 -59 19 -62 19 -92 1 l-31 -18
-3 -420 c-3 -484 -14 -434 107 -484 89 -36 96 -37 136 -6 52 40 156 89 186 88
31 -1 69 37 69 68 0 21 -68 85 -114 107 -33 15 -36 15 -101 -16 -37 -17 -69
-31 -72 -31 -2 0 -3 21 -1 47 3 47 3 48 66 80 35 18 76 33 91 33 28 0 71 36
71 59 0 19 -96 110 -124 117 -15 3 -42 0 -66 -10 l-40 -16 0 83 c0 81 1 83 30
100 41 25 138 57 170 57 28 0 70 36 70 61 0 8 -7 25 -16 37 -20 29 -112 102
-127 102 -7 -1 -30 -10 -52 -22z"/>
<path d="M5193 5068 c-24 -5 -43 -14 -43 -19 0 -6 -4 -7 -10 -4 -5 3 -17 2
-27 -3 -11 -7 -37 -4 -80 9 -35 10 -71 15 -79 12 -19 -7 -28 -45 -20 -87 9
-45 8 -683 0 -736 -6 -34 -3 -45 16 -65 27 -29 145 -78 170 -70 30 10 43 56
30 106 -10 35 -16 143 -11 191 1 4 18 -1 39 -12 51 -26 86 -17 140 37 52 52
134 218 152 307 23 111 -7 200 -87 259 -26 20 -59 45 -73 55 -33 26 -66 31
-117 20z m94 -184 c18 -46 -73 -265 -125 -303 l-27 -19 1 124 c2 138 3 141 73
186 51 32 69 35 78 12z"/>
<path d="M8569 5056 c-72 -49 -129 -168 -129 -269 0 -109 55 -181 203 -269 39
-24 74 -53 82 -69 28 -54 13 -179 -22 -179 -16 0 -29 31 -38 93 -4 26 -12 51
-19 56 -6 5 -47 14 -90 20 -67 10 -83 9 -103 -4 -28 -19 -29 -47 -4 -89 10
-17 26 -55 36 -84 25 -77 57 -104 151 -126 129 -31 200 -22 257 32 47 44 60
79 59 159 -1 125 -27 162 -189 266 -39 25 -79 57 -88 71 -18 28 -36 144 -24
152 4 2 10 17 14 33 6 29 40 69 50 59 3 -3 6 -55 6 -117 0 -103 2 -112 22
-125 34 -22 135 -48 158 -41 31 10 37 40 29 170 -11 178 -14 183 -191 251
-105 41 -123 42 -170 10z"/>
<path d="M9190 5073 c-32 -11 -93 -81 -122 -137 -35 -69 -46 -150 -29 -212 18
-68 63 -118 170 -189 56 -36 105 -74 111 -84 31 -59 15 -176 -25 -176 -17 0
-22 11 -33 65 -7 36 -18 71 -25 77 -7 7 -48 17 -92 23 -65 8 -82 7 -102 -5
-28 -19 -29 -43 -4 -87 11 -18 29 -59 41 -90 27 -74 60 -100 151 -123 96 -23
159 -22 215 6 85 40 119 133 94 253 -15 73 -46 109 -153 177 -45 28 -92 61
-105 72 -24 23 -47 88 -43 127 4 42 31 118 47 131 26 21 31 -4 27 -117 l-4
-105 53 -24 c29 -13 72 -27 95 -31 37 -6 43 -4 58 20 13 19 15 36 10 62 -3 20
-6 69 -6 108 1 144 -19 168 -181 229 -96 36 -118 41 -148 30z"/>
<path d="M5787 5040 c-66 -29 -70 -29 -138 -18 -46 8 -75 9 -85 3 -13 -9 -15
-67 -16 -445 l0 -435 27 -13 c14 -8 60 -16 101 -18 70 -5 75 -4 83 18 5 13 5
30 -1 40 -5 10 -7 63 -6 118 l3 99 110 -107 c61 -59 120 -119 132 -134 31 -40
63 -36 106 11 68 75 84 132 45 152 -13 6 -69 57 -125 112 l-102 101 73 76 c94
98 127 155 133 225 5 67 -9 97 -79 160 -106 96 -147 104 -261 55z m143 -163
c0 -30 -84 -151 -136 -197 l-39 -34 -3 75 c-3 71 -2 75 25 97 37 31 125 82
141 82 6 0 12 -11 12 -23z"/>
<path d="M6267 5058 c-17 -13 -18 -42 -18 -457 0 -356 2 -446 13 -453 13 -8
87 -31 138 -42 54 -11 53 -22 55 435 1 233 4 440 6 459 3 29 0 36 -21 46 -42
20 -152 28 -173 12z"/>
<path d="M6613 5062 c-44 -7 -45 -12 -47 -414 -2 -211 -6 -399 -10 -419 -9
-42 -2 -50 69 -72 78 -25 133 -31 150 -17 17 14 20 62 5 91 -6 11 -9 76 -8
159 l3 141 63 -158 c34 -87 62 -167 62 -179 0 -11 8 -28 18 -36 46 -41 218
-66 248 -37 10 11 13 101 15 459 l2 445 -34 17 c-37 20 -113 24 -153 8 l-26
-10 -1 -227 0 -228 -18 50 c-11 28 -40 116 -65 196 -51 159 -63 182 -106 204
-31 16 -131 32 -167 27z"/>
<path d="M7449 5051 c-112 -61 -182 -231 -183 -441 -1 -153 7 -198 44 -278 50
-107 111 -161 229 -200 58 -20 66 -20 100 -6 49 20 105 76 157 156 63 95 60
109 -27 152 -98 49 -118 47 -134 -17 -4 -15 -32 -53 -62 -85 l-55 -57 -19 42
c-39 85 -41 301 -6 424 17 57 70 149 86 149 15 0 17 -110 4 -150 -19 -54 -16
-66 25 -83 156 -67 197 -46 188 99 -10 165 -41 217 -162 278 -73 37 -137 43
-185 17z"/>
<path d="M6440 3804 c-63 -30 -98 -32 -158 -10 -38 14 -48 14 -78 1 l-34 -14
0 -429 0 -430 23 -14 c34 -21 146 -68 164 -68 9 0 31 11 49 25 43 33 175 96
186 89 12 -8 49 6 43 16 -3 4 2 11 11 14 17 7 16 72 -1 69 -5 -1 -14 5 -18 12
-10 19 -92 75 -109 75 -7 0 -44 -15 -81 -33 l-68 -34 3 50 c3 48 4 50 54 77
56 29 87 41 123 44 25 2 51 30 51 55 0 22 -106 121 -130 121 -11 0 -37 -7 -57
-15 -19 -8 -37 -15 -39 -15 -2 0 -4 37 -4 83 0 81 1 83 30 100 41 25 138 57
170 57 31 0 70 33 70 60 0 10 -12 33 -27 51 -26 31 -99 89 -112 89 -3 0 -31
-12 -61 -26z"/>
<path d="M5641 3803 c-21 -17 -22 -22 -11 -44 11 -19 13 -114 13 -432 l-1
-408 25 -16 c33 -22 130 -53 164 -53 17 0 32 7 38 18 11 20 173 92 207 92 39
0 75 63 52 91 -16 19 -86 72 -116 88 -19 10 -32 7 -88 -19 -36 -16 -70 -30
-75 -30 -9 0 -11 67 -9 405 1 224 1 215 12 215 5 0 8 12 6 28 -2 23 -12 31
-59 49 -86 34 -130 39 -158 16z"/>
<path d="M5358 3793 c-9 -10 -21 -47 -27 -83 -6 -36 -33 -146 -60 -245 -26
-99 -52 -195 -56 -213 -4 -18 -8 -32 -10 -30 -6 6 -43 201 -59 313 -11 72 -13
120 -8 140 15 48 0 71 -62 94 -31 11 -74 24 -95 27 -34 5 -41 3 -56 -19 -14
-22 -15 -35 -5 -109 23 -163 60 -355 90 -468 17 -63 40 -151 51 -195 12 -46
29 -87 40 -97 24 -20 128 -56 190 -64 42 -6 49 -4 62 17 8 13 15 47 16 76 1
87 82 432 157 672 36 117 37 122 19 141 -20 22 -114 60 -149 60 -13 0 -30 -8
-38 -17z"/>
<path d="M6753 3800 l-23 -9 0 -420 c0 -231 -2 -426 -5 -434 -12 -29 28 -57
109 -78 94 -24 112 -16 108 48 -2 21 -5 192 -8 381 -4 286 -2 353 10 403 18
69 14 84 -25 98 -44 15 -141 22 -166 11z"/>
<path d="M5230 2544 c-25 -14 -45 -25 -45 -23 0 1 -17 -4 -38 -10 -34 -12 -43
-11 -75 5 -21 11 -40 23 -43 27 -12 16 -62 17 -86 2 -19 -13 -23 -22 -19 -46
2 -17 8 -35 13 -42 5 -7 8 -182 7 -390 -1 -359 0 -379 18 -403 11 -13 26 -24
34 -24 8 0 14 -4 14 -10 0 -14 76 -50 99 -47 10 2 26 8 34 15 16 14 28 58 18
68 -3 3 -6 9 -7 12 0 4 -4 14 -8 24 -4 9 -8 49 -10 88 -2 68 0 73 24 88 14 9
28 21 32 27 4 5 8 7 8 2 0 -4 13 -1 28 7 15 8 45 16 67 18 55 5 83 44 65 88
-7 17 -20 36 -29 43 -9 7 -21 21 -27 31 -6 11 -19 24 -30 30 -10 6 -22 15 -25
20 -4 4 -26 -1 -50 -11 -24 -11 -48 -19 -53 -19 -5 1 -9 37 -10 80 -1 59 3 83
14 95 32 31 161 83 212 84 45 1 53 4 69 31 13 22 15 33 7 43 -6 7 -7 13 -2 13
14 0 -41 53 -85 81 -55 35 -64 36 -121 3z"/>
<path d="M5707 2544 c-3 -4 -31 -6 -62 -6 -30 0 -55 -5 -55 -10 0 -5 -4 -7 -9
-4 -4 3 -15 -2 -23 -12 -20 -22 -60 -102 -52 -102 4 0 2 -6 -4 -13 -13 -16
-44 -128 -37 -135 3 -3 -1 -12 -8 -20 -14 -18 -17 -325 -3 -357 5 -11 10 -31
12 -44 2 -13 7 -27 11 -30 4 -3 9 -13 11 -21 9 -45 99 -140 116 -123 3 3 6 2
6 -4 0 -9 85 -37 115 -38 6 0 13 -4 17 -10 4 -5 35 -9 70 -10 56 0 69 4 108
33 24 17 40 32 35 32 -5 0 1 7 13 16 12 8 20 20 17 25 -4 5 -2 9 3 9 12 0 61
114 68 160 3 19 8 49 10 65 10 59 6 222 -6 280 -17 83 -57 180 -97 232 -43 57
-117 93 -189 93 -33 0 -63 -3 -67 -6z m131 -183 c8 -20 17 -45 19 -56 8 -42 9
-291 2 -320 -5 -16 -10 -46 -12 -65 -2 -20 -6 -40 -9 -45 -3 -6 -11 -26 -17
-46 -6 -20 -23 -46 -36 -59 -22 -21 -27 -22 -55 -10 -17 7 -28 15 -26 18 3 2
-4 18 -15 33 -11 16 -18 29 -15 29 2 0 0 15 -5 33 -27 89 -27 275 0 365 5 17
7 32 3 32 -4 0 0 4 8 10 9 6 17 5 22 -3 13 -21 42 7 61 59 32 84 47 90 75 25z"/>
<path d="M6390 2523 c-36 -14 -66 -30 -68 -34 -2 -4 -15 -4 -29 2 -15 5 -32 8
-40 5 -7 -3 -13 -1 -13 4 0 16 -77 11 -94 -6 -17 -17 -20 -30 -8 -37 9 -6 8
-775 -2 -805 -6 -19 -2 -25 29 -38 20 -8 40 -12 45 -9 5 3 11 1 14 -4 9 -14
112 -13 125 2 10 13 8 47 -5 68 -7 12 -13 167 -6 186 5 14 82 -47 150 -119 24
-26 49 -45 55 -41 5 3 7 1 3 -5 -3 -6 4 -18 16 -26 12 -9 18 -16 13 -16 -4 0
2 -11 15 -25 16 -17 31 -23 52 -21 28 3 68 31 68 47 0 5 7 17 15 26 8 10 16
23 17 28 1 6 8 16 15 23 23 24 15 48 -24 68 -21 10 -47 30 -58 44 -54 67 -119
129 -128 123 -6 -3 -7 -1 -3 6 4 6 -1 14 -14 19 -20 7 -20 9 9 36 17 16 28 34
24 39 -3 6 -1 7 4 4 11 -7 90 82 86 95 -2 5 1 8 6 8 12 0 49 63 57 98 12 47 9
103 -7 113 -7 5 -10 9 -5 9 11 0 -89 104 -127 132 -44 32 -111 32 -187 1z
m135 -153 c11 -18 -45 -112 -104 -173 -85 -89 -86 -89 -86 0 l0 75 55 40 c50
37 104 67 122 68 4 0 10 -5 13 -10z"/>
<path d="M6831 2536 c-7 -8 -16 -37 -19 -63 -7 -60 -7 -400 0 -468 3 -27 8
-74 12 -104 3 -29 10 -59 16 -66 5 -6 7 -14 4 -17 -2 -3 4 -29 15 -58 21 -55
58 -103 72 -94 5 3 9 1 9 -4 0 -8 40 -21 85 -27 6 -1 18 -5 27 -9 9 -4 22 -9
30 -10 7 -2 27 -9 43 -15 48 -20 104 -8 138 31 32 36 70 115 62 128 -3 5 -1
11 4 14 8 6 20 63 28 136 15 141 28 537 20 572 -7 25 -42 46 -90 55 -88 15
-98 15 -117 -2 -20 -18 -28 -65 -12 -65 5 0 9 -8 10 -17 4 -44 1 -413 -4 -458
-3 -27 -7 -64 -8 -81 -2 -17 -5 -35 -8 -40 -5 -9 -21 -86 -19 -92 1 -1 -7 -12
-18 -23 -25 -27 -56 -18 -59 17 -1 15 -6 32 -12 39 -5 6 -8 14 -5 16 2 3 0 31
-5 64 -23 153 -29 474 -10 531 13 37 10 81 -4 76 -5 -2 -12 1 -15 7 -4 6 -16
12 -26 14 -11 1 -25 6 -32 10 -6 4 -31 10 -55 13 -33 5 -47 2 -57 -10z"/>
<path d="M7494 2536 c-18 -14 -19 -31 -21 -418 -1 -222 -5 -419 -8 -440 -6
-31 -4 -38 16 -51 50 -31 179 -46 198 -23 11 14 11 105 1 111 -9 6 -14 445 -6
445 3 0 13 -25 22 -55 10 -30 20 -55 23 -55 3 0 7 -12 8 -26 0 -15 7 -30 15
-35 7 -5 10 -9 6 -9 -6 0 27 -109 48 -160 4 -8 8 -26 10 -40 2 -14 8 -26 14
-28 5 -2 8 -7 6 -10 -6 -11 8 -83 16 -80 4 2 13 -4 20 -14 16 -20 105 -39 170
-37 65 3 83 23 74 86 -10 69 -11 58 13 142 7 25 14 54 16 65 1 12 7 34 14 49
6 16 9 32 6 37 -3 5 -1 11 4 14 5 3 12 23 17 43 9 44 8 41 21 73 6 14 13 32
16 40 5 14 11 -352 7 -460 -1 -40 2 -47 29 -63 17 -10 31 -15 31 -11 0 3 6 2
13 -4 7 -6 24 -13 37 -16 14 -2 39 -8 56 -11 44 -10 67 15 57 63 -4 21 -8 214
-9 431 -2 445 2 423 -81 427 -27 1 -88 10 -136 19 -82 16 -89 16 -106 1 -16
-14 -46 -91 -55 -138 -1 -7 -10 -37 -19 -67 -9 -29 -14 -57 -12 -61 3 -5 1
-10 -5 -12 -5 -1 -12 -19 -14 -38 -3 -19 -6 -36 -7 -37 -1 -2 -2 -6 -4 -10 -1
-5 -4 -15 -7 -23 -4 -8 -14 -43 -24 -77 -16 -58 -31 -81 -31 -50 0 21 -46 142
-57 149 -6 4 -8 8 -4 8 10 0 -32 114 -44 118 -4 2 -6 7 -3 12 3 4 -3 25 -12
46 -9 22 -16 56 -17 76 0 33 -4 40 -33 53 -33 16 -213 65 -237 65 -7 0 -21 -6
-32 -14z"/>
</g>
</svg>
